<svg width="64" height="64" viewBox="0 0 64 64" fill="none" xmlns="http://www.w3.org/2000/svg">
<path d="M11 47H6C4.35 47 3 45.5569 3 43.7931V19.2069C3 17.4431 4.35 16 6 16H11V18.1379H6C5.45 18.1379 5 18.619 5 19.2069V43.7931C5 44.381 5.45 44.8621 6 44.8621H11V47Z" fill="white"/>
<path d="M21.7857 10.1333H25V8H21.7857C20.0286 8 18.475 8.864 17.5 10.1653C16.525 8.85333 14.9714 8 13.2143 8H10V10.1333H13.2143C14.9821 10.1333 16.4286 11.5733 16.4286 13.3333V50.6667C16.4286 52.4267 14.9821 53.8667 13.2143 53.8667H10V56H13.2143C14.9714 56 16.525 55.136 17.5 53.8347C18.475 55.1467 20.0286 56 21.7857 56H25V53.8667H21.7857C20.0179 53.8667 18.5714 52.4267 18.5714 50.6667V13.3333C18.5714 11.5733 20.0179 10.1333 21.7857 10.1333Z" fill="white"/>
<path d="M57.8333 16.6531L24 16.6531V18.746L57.8333 18.746C58.4139 18.746 58.8889 19.2169 58.8889 19.7924V43.8607C58.8889 44.4362 58.4139 44.9071 57.8333 44.9071H24V47H57.8333C59.575 47 61 45.5873 61 43.8607V19.7924C61 18.0658 59.575 16.6531 57.8333 16.6531Z" fill="white"/>
<path d="M48.4185 26V30.8462L43.6597 29.3462L43 31.3497L47.7479 32.8392L44.8062 36.7727L46.5582 38L49.5 34.0769L52.4418 38L54.1938 36.7727L51.2521 32.8392L56 31.3497L55.3403 29.3462L50.5815 30.8462V26H48.4185Z" fill="white"/>
<path d="M32.4185 26V30.8462L27.6597 29.3462L27 31.3497L31.7479 32.8392L28.8062 36.7727L30.5582 38L33.5 34.0769L36.4418 38L38.1938 36.7727L35.2521 32.8392L40 31.3497L39.3403 29.3462L34.5815 30.8462V26H32.4185Z" fill="white"/>
</svg>
