<svg width="64" height="64" viewBox="0 0 64 64" fill="none" xmlns="http://www.w3.org/2000/svg">
<path d="M59 45V49H55V51H60C60.55 51 61 50.55 61 50V45H59Z" fill="#163341"/>
<path d="M52 49H41V51H52V49Z" fill="#163341"/>
<path d="M38 49H35V51H38V49Z" fill="#163341"/>
<path d="M61 31H59V42H61V31Z" fill="#163341"/>
<path d="M61 18H59V28H61V18Z" fill="#163341"/>
<path d="M14 16H12V26H14V16Z" fill="#163341"/>
<path d="M13 3C12.45 3 12 3.45 12 4V12H14V5H15V3H13Z" fill="#163341"/>
<path d="M45 3H35V5H45V3Z" fill="#163341"/>
<path d="M30 3H20V5H30V3Z" fill="#163341"/>
<path d="M49 3V5H57.5L35 28L5.03636 27.9455C4.46636 27.9455 4 28.42 4 29L4 59.9454C4 60.5254 4.46636 61 5.03636 61H35.0909C35.6609 61 36 60.58 36 60V30L59 6.5V15L61 15V3H49ZM34 59H6V30H34.0545L34 59Z" fill="#FF4438"/>
</svg>
