<svg width="64" height="64" viewBox="0 0 64 64" fill="none" xmlns="http://www.w3.org/2000/svg">
<path d="M39.4778 49.5661H39.4674L38.2037 50.1213L39.0078 50.535L32 53.6267L24.9922 50.535L25.7963 50.1213L24.5326 49.5661H24.5222L23.2585 49L20 50.6983L32 56L44 50.6983L40.7415 49L39.4778 49.5661Z" fill="#163341"/>
<path d="M44.5693 41.48L43.3299 41.96L44.0632 42.2988L34.1069 46.1388L32.8469 46.6188L32 46.9482L31.1531 46.6188L29.8931 46.1388L19.9368 42.2988L20.6701 41.96L19.4307 41.48L18.181 41L15 42.4494L27.4557 47.2494L28.7053 47.7294H28.7157L29.9654 48.2188L32 49L34.0346 48.2188L35.2843 47.7294H35.2947L36.5444 47.2494L49 42.4494L45.819 41L44.5693 41.48Z" fill="#163341"/>
<path d="M50.6415 31L49.3987 31.5341L48.2997 31.9963L48.1457 32.0579L49.0906 32.5303L42.014 35.5294L38.3473 37.07L37.1046 37.6041L35.8618 38.1279L32 39.761L28.1382 38.1279L26.8954 37.6041L25.6527 37.07L21.986 35.5294L14.9094 32.5303L15.8543 32.0579L15.7003 31.9963L14.6013 31.5341L13.3585 31L10 32.6844L12.3315 33.6704L19.5621 36.7311L23.2288 38.282L24.4715 38.8161L25.7143 39.3399L32 42L38.2857 39.3399L39.5285 38.8161L40.7712 38.282L44.4379 36.7311L51.6685 33.6704L54 32.6844L50.6415 31Z" fill="#163341"/>
<path d="M32 8L3 22.628L11.9789 26.4601L17.9546 29.0046L19.1906 29.5403L20.2836 30.0038L20.4368 30.0656L27.4748 33.0736L31.1113 34.6188L32 35L32.8887 34.6188L36.5252 33.0736L43.5632 30.0656L43.7164 30.0038L44.8094 29.5403L46.0454 29.0046L52.0211 26.4601L61 22.628L32 8ZM41.3057 28.7882L41.1525 28.8501L34.1145 31.8478L32 32.7543L29.8855 31.8478L22.8475 28.8501L22.6943 28.7882L21.6115 28.3144L20.3653 27.789L14.3998 25.2446L7.88271 22.4632L32 10.3075L56.1173 22.4632L49.6002 25.2446L43.6347 27.789L42.3885 28.3144L41.3057 28.7882Z" fill="#FF4438"/>
</svg>
