<svg width="64" height="64" viewBox="0 0 64 64" fill="none" xmlns="http://www.w3.org/2000/svg">
<path d="M60 48.1367V21.8632H58.0273V46.1538H5.97274V7.98291H30.1388V6H4V48.1367L23.0631 48.1903V53.3954L17.5 57.5C16.8095 58.0156 16.5334 58.888 16.7997 59.7209C17.0759 60.5438 17.8058 61.0791 18.6738 61.0791L45.3621 61C46.2301 61 46.96 60.4646 47.2362 59.6417C47.5025 58.8089 47.2263 57.9364 46.526 57.4109L40.9727 53.3162V48.1111L60 48.1367ZM45.3621 59.0171L18.6738 59.0962L25.0359 54.4067V48.1903L39 48.1111V54.3275L45.3621 59.0171Z" fill="#163341"/>
<path d="M46 22H44V43H46V22Z" fill="#FF4438"/>
<path d="M19 32H17V43H19V32Z" fill="#FF4438"/>
<path d="M28 19H26V43H28V19Z" fill="#FF4438"/>
<path d="M37 28H35V43H37V28Z" fill="#FF4438"/>
<path d="M58.7436 10.6044L58.5562 10.3467C58.5562 10.3467 58.428 10.1682 58.2504 9.95009C57.6487 9.19658 56.1889 7.5012 54.1668 5.97436C52.0757 4.39795 49.3928 3 46.414 3C43.4351 3 40.7522 4.39795 38.6611 5.97436C37.7832 6.62872 37.0139 7.32273 36.3826 7.95726C35.12 9.2065 34.3507 10.2376 34.2717 10.3467L33.8279 10.9515L34.3013 11.5463C34.4789 11.7744 38.02 16.2062 42.9617 17.8024C43.6028 18.0106 44.2538 18.1692 44.9344 18.2585C45.4177 18.3279 45.9109 18.3675 46.414 18.3675C50.537 18.3675 54.0978 15.8691 56.2777 13.8961C57.2147 13.0434 57.8953 12.2899 58.2504 11.8834C58.4082 11.695 58.497 11.5761 58.5266 11.5463L58.7436 11.2786L59 10.9515L58.7436 10.6044ZM56.2777 11.1299C54.7192 12.7856 50.8329 16.3846 46.414 16.3846C45.9109 16.3846 45.4177 16.335 44.9344 16.2557C44.2538 16.1368 43.5929 15.9385 42.9617 15.6906C39.8645 14.4909 37.3788 12.0421 36.353 10.9118C36.9349 10.2277 37.9805 9.06769 39.3614 7.95726C40.259 7.22359 41.2947 6.51966 42.429 5.97436C43.662 5.37949 45.0133 4.98291 46.414 4.98291C47.8146 4.98291 49.1659 5.37949 50.3989 5.97436C51.5332 6.51966 52.5689 7.22359 53.4665 7.95726C54.6995 8.94872 55.676 9.98974 56.2777 10.6838C56.3467 10.7631 56.4158 10.8424 56.4749 10.9118C56.4158 10.9812 56.3467 11.0506 56.2777 11.1299Z" fill="#163341"/>
<path fill-rule="evenodd" clip-rule="evenodd" d="M48.8798 10.4359C48.8798 11.8041 47.7751 12.9145 46.4139 12.9145C45.8616 12.9145 45.3388 12.7262 44.9344 12.4188C44.3327 11.9627 43.948 11.2489 43.948 10.4359C43.948 9.0677 45.0527 7.95728 46.4139 7.95728C47.7751 7.95728 48.8798 9.0677 48.8798 10.4359Z" fill="#FF4438"/>
</svg>
