<svg width="64" height="64" viewBox="0 0 64 64" fill="none" xmlns="http://www.w3.org/2000/svg">
<path d="M50.6869 28.3499H43.6622L45.0569 16.7149L43.0309 16.4695L41.6158 28.3499H30.1828L28.7677 16.4695L26.7417 16.7149L28.1364 28.3499H21.1626V30.3948H28.3808L29.7959 42.2752L31.8219 42.0298L30.4271 30.3948H41.3715L39.9767 42.0298L42.0027 42.2752L43.4178 30.3948H50.6869V28.3499Z" fill="#091A23"/>
<path d="M50.5545 43.6862H21.9668C19.7169 43.6862 17.7011 42.173 17.0699 39.9953L8.32456 9.72159L3 7.94259L3.64139 6L8.96595 7.779C9.59716 7.98348 10.0858 8.49469 10.2793 9.15926L11.9795 15.0279H58.974C59.6154 15.0279 60.2059 15.3244 60.5928 15.8459C60.9796 16.3673 61.1018 17.0114 60.9287 17.6351L54.4741 40.711C53.9956 42.4695 52.3769 43.6964 50.5545 43.6964V43.6862ZM12.5598 17.0727L19.0144 39.4227C19.3911 40.7314 20.6026 41.6414 21.9566 41.6414H50.5443C51.4606 41.6414 52.2649 41.0279 52.499 40.1486L58.9537 17.0727H12.5598Z" fill="#091A23"/>
<path d="M48.1622 58C45.3523 58 43.0718 55.7098 43.0718 52.888C43.0718 50.0661 45.3523 47.7759 48.1622 47.7759C50.9721 47.7759 53.2526 50.0661 53.2526 52.888C53.2526 55.7098 50.9721 58 48.1622 58ZM48.1622 49.8207C46.4823 49.8207 45.1079 51.201 45.1079 52.888C45.1079 54.5749 46.4823 55.9552 48.1622 55.9552C49.842 55.9552 51.2164 54.5749 51.2164 52.888C51.2164 51.201 49.842 49.8207 48.1622 49.8207Z" fill="#091A23"/>
<path d="M24.7462 58C21.9363 58 19.6558 55.7098 19.6558 52.888C19.6558 50.0661 21.9363 47.7759 24.7462 47.7759C27.5561 47.7759 29.8366 50.0661 29.8366 52.888C29.8366 55.7098 27.5561 58 24.7462 58ZM24.7462 49.8207C23.0663 49.8207 21.6919 51.201 21.6919 52.888C21.6919 54.5749 23.0663 55.9552 24.7462 55.9552C26.426 55.9552 27.8004 54.5749 27.8004 52.888C27.8004 51.201 26.426 49.8207 24.7462 49.8207Z" fill="#091A23"/>
</svg>
