<svg width="64" height="64" viewBox="0 0 64 64" fill="none" xmlns="http://www.w3.org/2000/svg">
<path fill-rule="evenodd" clip-rule="evenodd" d="M46 15C44.3431 15 43 16.3431 43 18C43 19.6569 44.3431 21 46 21C47.6569 21 49 19.6569 49 18C49 16.3431 47.6569 15 46 15ZM41 18C41 15.2386 43.2386 13 46 13C48.7614 13 51 15.2386 51 18C51 20.7614 48.7614 23 46 23C43.2386 23 41 20.7614 41 18Z" fill="#FF4438"/>
<path fill-rule="evenodd" clip-rule="evenodd" d="M36 25C34.3431 25 33 26.3431 33 28C33 29.6569 34.3431 31 36 31C37.6569 31 39 29.6569 39 28C39 26.3431 37.6569 25 36 25ZM31 28C31 25.2386 33.2386 23 36 23C38.7614 23 41 25.2386 41 28C41 30.7614 38.7614 33 36 33C33.2386 33 31 30.7614 31 28Z" fill="#FF4438"/>
<path fill-rule="evenodd" clip-rule="evenodd" d="M14.9546 42C12.9117 42.481 10.8165 43.6361 9.0431 45.4095C5.50949 48.9431 4.15993 54.9539 3.31963 60.1467C3.20503 60.8549 3.0999 61.5479 3 62.2172C3.66938 62.1173 4.36234 62.0122 5.07051 61.8976C10.2633 61.0573 16.2741 59.7078 19.8077 56.1741C21.5812 54.4007 22.7363 52.3055 23.2172 50.2626L21.4623 48.5077C21.4502 48.72 21.4277 48.938 21.3944 49.1613C21.122 50.9861 20.1291 53.0243 18.3935 54.7599C16.722 56.4315 14.2763 57.6116 11.4127 58.4744C9.45892 59.0631 7.40229 59.4784 5.40146 59.8158C5.73884 57.815 6.15415 55.7583 6.74286 53.8045C7.60569 50.941 8.78578 48.4953 10.4573 46.8237C12.1929 45.0881 14.2311 44.0952 16.0559 43.8229C16.2793 43.7896 16.4973 43.7671 16.7096 43.755L14.9546 42Z" fill="#FF4438"/>
<path fill-rule="evenodd" clip-rule="evenodd" d="M47.1374 50.0064C48.697 45.7752 50.0394 39.1453 49.3229 29.4117L47.3283 29.5585C48.0261 39.038 46.7116 45.3787 45.2608 49.3147C44.5349 51.2843 43.7724 52.6583 43.2041 53.5275C43.1068 53.6764 43.0151 53.8105 42.9302 53.9303L33.8195 44.8196L32.4053 46.2338L43.0119 56.8404L43.7202 56.1322L43.7214 56.1309L43.7245 56.1278L43.7324 56.1198L43.7552 56.0961C43.7735 56.0769 43.7979 56.0508 43.828 56.0176C43.8881 55.9514 43.9707 55.8569 44.0722 55.7328C44.2753 55.4846 44.5537 55.1181 44.878 54.622C45.527 53.6293 46.3581 52.1205 47.1374 50.0064Z" fill="#FF4438"/>
<path fill-rule="evenodd" clip-rule="evenodd" d="M14.4907 17.3597C18.722 15.8001 25.3518 14.4577 35.0855 15.1742L34.9387 17.1688C25.4591 16.4711 19.1184 17.7855 15.1824 19.2363C13.2129 19.9623 11.8389 20.7248 10.9696 21.2931C10.8208 21.3904 10.6867 21.482 10.5668 21.5669L19.6776 30.6776L18.2633 32.0918L7.65674 21.4852L8.36384 20.7781L9.07095 21.4852C8.36384 20.7781 8.36498 20.777 8.36498 20.777L8.36628 20.7757L8.36934 20.7727L8.37736 20.7648L8.40105 20.742C8.42027 20.7236 8.44636 20.6992 8.4795 20.6692C8.54579 20.6091 8.64027 20.5264 8.76436 20.4249C9.01258 20.2218 9.37909 19.9434 9.87518 19.6191C10.8678 18.9701 12.3766 18.139 14.4907 17.3597Z" fill="#FF4438"/>
<path fill-rule="evenodd" clip-rule="evenodd" d="M61 3L62 3C62 11.6042 58.7087 19.8824 52.8007 26.1377L33.1331 46.9615L17.5483 31.3767L38.0058 11.3736C44.1513 5.36457 52.4049 2 61 2V3ZM59.9837 4.0167C59.7359 11.7434 56.6709 19.1272 51.3467 24.7644L33.0921 44.0921L20.3927 31.3927L39.4041 12.8036C44.9332 7.39724 52.2793 4.27009 59.9837 4.0167Z" fill="#FF4438"/>
<path fill-rule="evenodd" clip-rule="evenodd" d="M31.5711 42.571L21.9265 32.9264L11.7441 39.7146L24.7829 52.7534L31.5711 42.571ZM28.9975 42.8259L24.4721 49.6141L14.8834 40.0255L21.6716 35.5L28.9975 42.8259Z" fill="#FF4438"/>
<path d="M60.6667 2.00154L62 2.00152L62.0001 3.52477L60.6667 3.52475L60.6667 2.00154Z" fill="#FF4438"/>
</svg>
