<svg width="64" height="64" viewBox="0 0 64 64" fill="none" xmlns="http://www.w3.org/2000/svg">
<path d="M60 29H61V16H3V29H4C5.1 29 6 29.9 6 31C6 32.1 5.1 33 4 33H3V45H11V48H13V45H23V44C23 42.9 23.9 42 25 42C26.1 42 27 42.9 27 44V45H33V48H35V45H41V48H43V45H49V48H51V45H61V33H60C58.9 33 58 32.1 58 31C58 29.9 58.9 29 60 29ZM59 34.87V43H28.87C28.42 41.28 26.86 40 25 40C23.14 40 21.57 41.28 21.13 43H5V34.87C6.72 34.43 8 32.86 8 31C8 29.14 6.72 27.57 5 27.13V18H59V27.13C57.28 27.57 56 29.14 56 31C56 32.86 57.28 34.43 59 34.87Z" fill="#FF4438"/>
<path d="M11 36H21V26H11V36ZM13 28H19V34H13V28Z" fill="#FF4438"/>
<path d="M27 36H37V26H27V36ZM29 28H35V34H29V28Z" fill="#FF4438"/>
<path d="M43 26V36H53V26H43ZM51 34H45V28H51V34Z" fill="#FF4438"/>
</svg>
