<svg width="64" height="64" viewBox="0 0 64 64" fill="none" xmlns="http://www.w3.org/2000/svg">
<path fill-rule="evenodd" clip-rule="evenodd" d="M13.0009 34C13.0009 34 12.9999 34 12.9999 33C12.9999 32 12.9996 32 12.9996 32L13.0023 32L13.0144 31.9999L13.0672 31.9995C13.115 31.999 13.1877 31.998 13.2841 31.9959C13.4767 31.9917 13.7637 31.9833 14.1343 31.9664C14.8756 31.9326 15.9508 31.8648 17.2744 31.7287C19.9237 31.4562 23.5576 30.9114 27.4977 29.8237C35.4103 27.6394 44.3803 23.3167 49.2428 14.8054L50.9793 15.7975C45.7307 24.9847 36.1451 29.5113 28.0299 31.7516C23.9562 32.8762 20.2081 33.4375 17.479 33.7182C16.1134 33.8586 15.0001 33.929 14.2254 33.9644C13.838 33.982 13.535 33.9909 13.3272 33.9954C13.2233 33.9977 13.1432 33.9988 13.0882 33.9994L13.0247 33.9999L13.0074 34L13.0009 34Z" fill="#FF4438"/>
<path fill-rule="evenodd" clip-rule="evenodd" d="M50.9999 14C51.5522 14 51.9999 13.5523 51.9999 13C51.9999 12.4477 51.5522 12 50.9999 12C50.4476 12 49.9999 12.4477 49.9999 13C49.9999 13.5523 50.4476 14 50.9999 14ZM50.9999 16C52.6568 16 53.9999 14.6569 53.9999 13C53.9999 11.3431 52.6568 10 50.9999 10C49.3431 10 47.9999 11.3431 47.9999 13C47.9999 14.6569 49.3431 16 50.9999 16Z" fill="#FF4438"/>
<path fill-rule="evenodd" clip-rule="evenodd" d="M50.9999 43C52.6567 43 53.9999 41.6569 53.9999 40C53.9999 38.3431 52.6567 37 50.9999 37C49.6937 37 48.5824 37.8348 48.1706 39H12.9999V41H48.1706C48.5824 42.1652 49.6937 43 50.9999 43ZM50.9999 41C51.5522 41 51.9999 40.5523 51.9999 40C51.9999 39.4477 51.5522 39 50.9999 39C50.4476 39 49.9999 39.4477 49.9999 40C49.9999 40.5523 50.4476 41 50.9999 41Z" fill="#FF4438"/>
<path fill-rule="evenodd" clip-rule="evenodd" d="M48.1706 48C48.5824 46.8348 49.6937 46 50.9999 46C52.6567 46 53.9999 47.3431 53.9999 49C53.9999 50.6569 52.6567 52 50.9999 52C49.6937 52 48.5824 51.1652 48.1706 50H12.9999V48H48.1706ZM51.9999 49C51.9999 49.5523 51.5522 50 50.9999 50C50.4476 50 49.9999 49.5523 49.9999 49C49.9999 48.4477 50.4476 48 50.9999 48C51.5522 48 51.9999 48.4477 51.9999 49Z" fill="#FF4438"/>
<path d="M6.99995 2.58582L10.7071 6.29292L9.29285 7.70714L7.99994 6.41423V52C7.99994 54.2091 9.7908 56 11.9999 56H56.5857L55.2928 54.7071L56.707 53.2929L60.4141 57L56.707 60.7071L55.2928 59.2929L56.5857 58H11.9999C8.68623 58 5.99994 55.3137 5.99994 52V6.41426L4.70706 7.70714L3.29285 6.29292L6.99995 2.58582Z" fill="#FF4438"/>
</svg>
