<svg width="64" height="64" viewBox="0 0 64 64" fill="none" xmlns="http://www.w3.org/2000/svg">
<path d="M28.5738 13C28.5738 7.49 24.1574 3 18.7377 3C13.318 3 8.90164 7.49 8.90164 13C8.90164 17.26 11.5377 20.89 15.2262 22.33C8.12459 23.49 3 27.66 3 32.78V39H28.5738V37H4.96721V32.78C4.96721 27.94 11.3607 24 19.2295 24C23.4984 24 27.3344 25.16 29.9508 27H33C30.7082 24.56 26.9902 22.81 22.5541 22.22C26.0852 20.7 28.5738 17.14 28.5738 13ZM18.7377 21C14.4 21 10.8689 17.41 10.8689 13C10.8689 8.59 14.4 5 18.7377 5C23.0754 5 26.6066 8.59 26.6066 13C26.6066 17.41 23.0754 21 18.7377 21Z" fill="#FF4438"/>
<path d="M58 32H56V42H58V32Z" fill="#FF4438"/>
<path d="M36 32H34V42H36V32Z" fill="#FF4438"/>
<path d="M61 49.5C61 47.29 59.21 45.5 57 45.5C54.79 45.5 53 47.29 53 49.5C53 51.36 54.28 52.91 56 53.36V61H58V53.36C59.72 52.91 61 51.36 61 49.5ZM57 51.5C55.9 51.5 55 50.6 55 49.5C55 48.4 55.9 47.5 57 47.5C58.1 47.5 59 48.4 59 49.5C59 50.6 58.1 51.5 57 51.5Z" fill="#FF4438"/>
<path d="M39 49.5C39 47.29 37.21 45.5 35 45.5C32.79 45.5 31 47.29 31 49.5C31 51.36 32.28 52.91 34 53.36V61H36V53.36C37.72 52.91 39 51.36 39 49.5ZM35 51.5C33.9 51.5 33 50.6 33 49.5C33 48.4 33.9 47.5 35 47.5C36.1 47.5 37 48.4 37 49.5C37 50.6 36.1 51.5 35 51.5Z" fill="#FF4438"/>
<path d="M47 51H45V61H47V51Z" fill="#FF4438"/>
<path d="M47 39.64V32H45V39.64C43.28 40.09 42 41.64 42 43.5C42 45.71 43.79 47.5 46 47.5C48.21 47.5 50 45.71 50 43.5C50 41.64 48.72 40.09 47 39.64ZM46 45.5C44.9 45.5 44 44.6 44 43.5C44 42.4 44.9 41.5 46 41.5C47.1 41.5 48 42.4 48 43.5C48 44.6 47.1 45.5 46 45.5Z" fill="#FF4438"/>
</svg>
