<svg width="64" height="64" viewBox="0 0 64 64" fill="none" xmlns="http://www.w3.org/2000/svg">
<path d="M57.9603 11V25.965C57.9603 27.6567 53.7305 29.5951 46 30.8163V32.8484C51.2828 32.0476 55.5229 30.96 57.9603 29.1982V39.6486C57.9603 41.3403 53.7305 43.2788 46 44.5V46.532C51.2828 45.7312 55.5229 44.6436 57.9603 42.8819V52.9319C57.9603 55.4645 48.0881 58.998 32.0051 58.998C15.9221 58.998 6.0397 55.4645 6.0397 52.9319V42.8819C8.33437 44.5435 12.1251 45.6892 17 46.5V44.4479C9.84065 43.2067 6.0397 41.2703 6.0397 39.6486V29.1982C8.33437 30.8599 12.1251 32.0055 17 32.8163V30.7643C9.84065 29.523 6.0397 27.5866 6.0397 25.965V11H4V52.9319C4 58.2272 18.0841 61 32.0051 61C45.9261 61 60 58.2272 60 52.9319V11H57.9603Z" fill="#FF4438"/>
<path d="M32.0051 3C13.6988 3 4.08159 6.99255 4 10.9454V10.995C4 12.1968 4.73429 13.2694 6.0397 14.203C10.4353 17.3613 21.2661 19 32.0051 19C42.7441 19 53.5647 17.3613 57.9603 14.203C59.2657 13.2694 60 12.1968 60 10.995V10.9454C59.9082 5.72129 45.8751 3 32.0051 3ZM32.0051 17.0137C15.9221 17.0137 6.0397 13.5078 6.0397 10.995C6.0397 8.48231 15.9221 4.98634 32.0051 4.98634C48.0881 4.98634 57.9603 8.48231 57.9603 10.995C57.9603 13.5078 48.0881 17.0137 32.0051 17.0137Z" fill="#FF4438"/>
<path d="M23.5109 36.5711V31.4228C23.5109 30.081 24.6284 28.9878 26 28.9878V27C23.5109 27 21.479 28.9878 21.479 31.4228V36.5711C21.479 37.9128 20.3716 39.0061 19 39.0061V40.9939C20.3716 40.9939 21.479 42.0872 21.479 43.4289V48.5772C21.479 51.0122 23.5109 53 26 53V51.0122C24.6284 51.0122 23.5109 49.919 23.5109 48.5772V43.4289C23.5109 42.0474 22.8607 40.805 21.8447 40C22.8607 39.195 23.5109 37.9526 23.5109 36.5711Z" fill="#FF4438"/>
<path d="M41.5109 36.5711V31.4228C41.5109 28.9878 39.4891 27 37 27V28.9878C38.3716 28.9878 39.479 30.081 39.479 31.4228V36.5711C39.479 37.9526 40.1292 39.195 41.1553 40C40.1292 40.805 39.479 42.0474 39.479 43.4289V48.5772C39.479 49.919 38.3716 51.0122 37 51.0122V53C39.4891 53 41.5109 51.0122 41.5109 48.5772V43.4289C41.5109 42.0872 42.6284 40.9939 44 40.9939V39.0061C42.6284 39.0061 41.5109 37.9128 41.5109 36.5711Z" fill="#FF4438"/>
</svg>
