<svg width="64" height="64" viewBox="0 0 64 64" fill="none" xmlns="http://www.w3.org/2000/svg">
<path d="M32 4C16.01 4 3 16.79 3 32.5C3 48.21 16.01 61 32 61C47.99 61 61 48.21 61 32.5C61 16.79 47.99 4 32 4ZM33 58.98V52H31V58.98C17.08 58.48 5.82 47.6 5.05 34H13V32H5.01C5.28 17.95 16.74 6.54 31 6.02V13H33V6.02C47.26 6.53 58.72 17.94 58.99 32H51V34H58.95C58.17 47.59 46.91 58.47 33 58.98Z" fill="#FF4438"/>
<path d="M19 45L26.8144 27.8144L44 20L36.1856 37.1856L19 45ZM28.3118 29.3118L22.9964 41.0036L34.6882 35.6882L40.0036 23.9964L28.3118 29.3118Z" fill="#FF4438"/>
</svg>
