<svg width="64" height="64" viewBox="0 0 64 64" fill="none" xmlns="http://www.w3.org/2000/svg">
<path d="M58 42.8957L52.0763 42.9716L50.0305 43C50.0305 42.7441 50.0509 42.4882 50.0509 42.2322C50.0509 41.8531 50.0407 41.4739 50 41.1043L52.0458 41.0758L57.9695 41L58 42.8957Z" fill="#FF4438"/>
<path d="M58 53.4165L57.4825 55L48.1774 52.8557L46 52.3526C46.5468 51.9649 47.0545 51.5113 47.5134 51L49.5053 51.4619L58 53.4165Z" fill="#FF4438"/>
<path d="M52.0581 40.28C51.9088 38.03 51.3515 35.94 50.4656 34.1C49.9182 34.17 49.3509 34.2 48.7836 34.2C48.6144 34.2 48.4452 34.2 48.276 34.19C49.2613 35.94 49.8983 38.04 50.0576 40.31C50.0974 40.7 50.1073 41.1 50.1073 41.5C50.1073 41.77 50.0974 42.04 50.0874 42.31C49.9282 45.42 48.903 48.23 47.3106 50.31C46.8428 50.93 46.3252 51.48 45.7679 51.95C44.265 53.25 42.4635 54 40.5227 54H25.6929C26.4592 53.38 27.1559 52.63 27.7929 51.75C29.7935 49.03 30.8982 45.39 30.8982 41.5C30.8982 37.61 29.7935 33.97 27.7929 31.25C27.1559 30.37 26.4493 29.62 25.6829 29H37.4871C36.9496 28.38 36.4619 27.71 36.0339 27H19.323V27.06C16.8646 27.37 14.5854 28.83 12.8337 31.25C12.3858 31.86 11.9877 32.51 11.6393 33.2C11.3109 33.84 11.0223 34.51 10.7734 35.2H12.9133C13.192 34.49 13.5304 33.82 13.9186 33.2C14.0778 32.93 14.257 32.68 14.4361 32.43C15.7997 30.56 17.5016 29.4 19.323 29.09C19.6514 29.03 19.9799 29 20.3183 29C20.6567 29 20.9851 29.03 21.3136 29.09C23.125 29.4 24.8269 30.56 26.1905 32.43C27.9422 34.82 28.9076 38.04 28.9076 41.5C28.9076 44.96 27.9422 48.18 26.1905 50.57C24.8369 52.44 23.125 53.6 21.3136 53.91C20.9851 53.97 20.6567 54 20.3183 54C19.9799 54 19.6514 53.97 19.323 53.91C17.7206 53.64 16.1978 52.7 14.9338 51.2H12.4555C12.5749 51.39 12.7043 51.57 12.8337 51.75C14.5854 54.17 16.8646 55.63 19.323 55.94V56H40.5227C40.8909 56 41.2493 55.98 41.6076 55.93C44.0261 55.65 46.2357 54.43 47.9874 52.56C48.4751 52.05 48.9329 51.48 49.341 50.87C50.9334 48.53 51.9387 45.54 52.088 42.28C52.088 42.02 52.0979 41.76 52.0979 41.5C52.0979 41.09 52.088 40.68 52.0581 40.28Z" fill="#FF4438"/>
<path d="M11.7289 41.5C11.7289 41.06 11.7488 40.63 11.7687 40.2C11.8483 39.17 12.0075 38.16 12.2564 37.2H10.2061C9.9871 38.17 9.84776 39.17 9.77809 40.2C9.74823 40.63 9.73828 41.06 9.73828 41.5C9.73828 41.74 9.73828 41.97 9.73828 42.2H11.7289C11.7289 41.97 11.7289 41.73 11.7289 41.5Z" fill="#FF4438"/>
<path d="M12.6744 47.1999C12.336 46.2499 12.0872 45.2499 11.9379 44.1999H9.91748C10.0568 45.2399 10.2758 46.2399 10.5843 47.1999C10.7933 47.8899 11.0521 48.5599 11.3507 49.1999H13.5702C13.2218 48.5699 12.9233 47.8999 12.6744 47.1999Z" fill="#FF4438"/>
<path d="M24.6078 35.2C24.1997 34.41 23.722 33.73 23.1746 33.2H3V35.2H24.6078Z" fill="#FF4438"/>
<path d="M26.0012 40.1999H3V42.1999H26.041C26.041 41.9699 26.0609 41.7399 26.0609 41.4999C26.0609 41.0599 26.041 40.6199 26.0012 40.1999Z" fill="#FF4438"/>
<path d="M24.8964 47.2C24.568 47.96 24.1698 48.63 23.722 49.2H3V47.2H24.8964Z" fill="#FF4438"/>
<path d="M61.5 19.5C61.5 22.65 60.34 25.52 58.41 27.72C57.53 28.73 56.49 29.6 55.32 30.28C53.63 31.28 51.69 31.88 49.61 31.98C49.49 31.99 49.37 32 49.25 31.99C49.17 32 49.08 32 49 32C48.1 32 47.23 31.91 46.39 31.73C44.48 31.32 42.74 30.48 41.27 29.33C40.51 28.73 39.83 28.05 39.23 27.3C37.52 25.17 36.5 22.45 36.5 19.5C36.5 12.6 42.09 7 49 7C55.91 7 61.5 12.6 61.5 19.5Z" fill="#FF4438"/>
<path d="M54.5402 19.72C53.6202 20.82 52.6302 22.09 50.6402 22.09C48.8702 22.09 48.2102 20.59 48.1602 19.38C48.5502 20.16 49.3102 20.8 50.4902 20.77C52.7702 20.7 54.3302 18.73 54.3302 16.94C54.3302 14.8 52.6602 13.25 49.7602 13.25C47.6802 13.25 45.1102 14.01 43.4202 15.2C43.4002 16.43 44.1202 18.03 44.3802 17.85C45.8402 16.85 47.0002 16.2 48.1302 15.87C46.4602 17.65 42.4602 21.78 41.9702 22.51C42.0202 23.18 42.8902 24.97 43.3102 24.97C43.4402 24.97 43.5502 24.9 43.6802 24.78C44.8802 23.48 45.8702 22.32 46.7402 21.2C46.8702 22.84 47.7102 24.85 50.0702 24.85C52.1802 24.85 54.2802 23.39 55.2302 20.1C55.3502 19.7 54.8302 19.38 54.5402 19.72ZM50.6302 15.68C51.7202 15.85 52.1302 16.43 52.1302 17.06C52.1302 18.1 51.0602 18.61 50.0902 18.61C49.5702 18.61 49.1702 18.48 48.8502 18.31C49.4402 17.47 50.0102 16.6 50.6302 15.68Z" fill="white"/>
</svg>
