<svg width="64" height="64" viewBox="0 0 64 64" fill="none" xmlns="http://www.w3.org/2000/svg">
<path d="M61 15.5C61 22.4 55.41 28 48.5 28C47.1 28 45.75 27.77 44.5 27.34H44.48C43.81 27.11 43.17 26.83 42.56 26.5C42.52 26.48 42.47 26.45 42.42 26.42C40.84 25.54 39.47 24.33 38.41 22.88C37.8 22.04 37.28 21.13 36.89 20.15C36.32 18.71 36 17.14 36 15.5C36 8.6 41.6 3 48.5 3C55.4 3 61 8.6 61 15.5Z" fill="#FF4438"/>
<path d="M55.2005 16.1766C54.1612 17.3968 53.0428 18.8055 50.7946 18.8055C48.795 18.8055 48.0494 17.1416 47.9929 15.7995C48.4335 16.6647 49.2921 17.3746 50.6252 17.3413C53.2009 17.2637 54.9633 15.0785 54.9633 13.093C54.9633 10.7193 53.0767 9 49.8005 9C47.4507 9 44.5473 9.843 42.6381 11.163C42.6155 12.5273 43.4289 14.302 43.7226 14.1024C45.372 12.9932 46.6825 12.2722 47.9591 11.9061C46.0724 13.8805 41.5536 18.4616 41 19.2713C41.0565 20.0145 42.0393 22 42.5138 22C42.6607 22 42.785 21.9224 42.9318 21.7893C44.2875 20.3473 45.4059 19.0606 46.3887 17.8183C46.5356 19.6374 47.4846 21.8669 50.1507 21.8669C52.5344 21.8669 54.9068 20.2474 55.98 16.5981C56.1156 16.1544 55.5282 15.7995 55.2005 16.1766ZM52.4779 13.2261C52.4779 14.3797 51.2691 14.9454 50.1733 14.9454C49.5858 14.9454 49.134 14.8012 48.7724 14.6126C49.439 13.6809 50.0829 12.7159 50.7833 11.6954C52.0147 11.884 52.4779 12.5273 52.4779 13.2261Z" fill="white"/>
<path d="M49 48H5V15H34C34 14.32 34.05 13.65 34.14 13H3V50H18.5V54.2L14 57.36C13.29 57.87 12.98 58.77 13.25 59.6C13.51 60.44 14.28 61 15.16 61H38.84C39.72 61 40.48 60.44 40.75 59.6C41.01 58.77 40.71 57.87 39.99 57.36L35.5 54.2V50H51V29.86C50.35 29.95 49.68 30 49 30V48ZM38.84 59H15.15L20.5 55.24V50H33.5V55.24L38.84 59Z" fill="#FF4438"/>
<path d="M22.32 37.74L15.52 31.5L22.32 25.26L23.67 26.74L18.48 31.5L23.67 36.26L22.32 37.74Z" fill="#FF4438"/>
<path d="M28.0312 25.7344L25.0308 36.7324L26.9602 37.2588L29.9607 26.2608L28.0312 25.7344Z" fill="#FF4438"/>
<path d="M32.6698 37.74L31.3198 36.26L36.5198 31.5L31.3198 26.74L32.6698 25.26L39.4798 31.5L32.6698 37.74Z" fill="#FF4438"/>
</svg>
