<svg width="64" height="64" viewBox="0 0 64 64" fill="none" xmlns="http://www.w3.org/2000/svg">
<path d="M3 26.2991V53.1179C3 57.6092 11.1002 60.9999 21.8376 60.9999H22.8291V26.2991H3ZM20.8462 59.0071C11.4472 58.8088 4.98291 55.8146 4.98291 53.1179V43.8379C7.88786 46.3264 13.7374 47.9722 20.8462 48.0615V59.0071ZM20.8462 46.0786C11.4769 45.9497 4.98291 42.9158 4.98291 40.1794V28.282H20.8462V46.0786Z" fill="white"/>
<path d="M43.719 29.442C43.3621 29.3131 43.0052 29.1743 42.6582 29.0256V40.1794C42.6582 42.9158 36.1741 45.9497 26.7949 46.0786V28.282H41.1908C40.2192 27.7268 39.317 27.0625 38.504 26.2991H24.812V60.9999H25.8035C36.5409 60.9999 44.6411 57.6092 44.6411 53.1179V29.7295C44.3337 29.6403 44.0264 29.551 43.719 29.442ZM42.6582 53.1179C42.6582 55.8146 36.1939 58.8088 26.7949 59.0071V48.0615C33.9036 47.9722 39.7631 46.3264 42.6582 43.8379V53.1179Z" fill="white"/>
<path d="M42.6582 29.0256C42.3806 28.9066 42.1129 28.7777 41.8452 28.6389C39.8325 30.9688 34.2407 33.0608 26.7949 33.2293V28.282H41.1908C40.2192 27.7267 39.317 27.0625 38.504 26.2991H26.7949V20.3603C29.9081 20.4396 32.6941 20.8362 35.0339 21.4608C34.7067 20.737 34.439 19.9934 34.2308 19.2201C31.7125 18.6748 28.8571 18.3674 25.8035 18.3674H24.812V35.2221H25.8035C26.1406 35.2221 26.4677 35.2221 26.7949 35.2122C33.8342 35.0536 39.7334 33.2491 42.6582 30.6119C43.0746 30.245 43.4315 29.8485 43.719 29.442C43.3621 29.3131 43.0052 29.1743 42.6582 29.0256Z" fill="white"/>
<path d="M21.8376 18.3674C11.6554 18.3674 3.59487 21.8078 3.02974 26.2991C3.00991 26.4577 3 26.6262 3 26.7948C3 28.1729 3.71385 29.4717 4.98291 30.6119C7.90769 33.2491 13.8068 35.0536 20.8462 35.2122C21.1733 35.2221 21.5005 35.2221 21.8376 35.2221H22.8291V18.3674H21.8376ZM20.8462 33.2293C13.0236 33.0508 7.24342 30.7507 5.52821 28.282H20.8462V33.2293ZM5.05231 26.2991C5.7265 23.4932 11.9726 20.5685 20.8462 20.3603V26.2991H5.05231Z" fill="white"/>
<path d="M61 15.5C61 22.4 55.41 28 48.5 28C47.1 28 45.75 27.77 44.5 27.34H44.48C43.81 27.11 43.17 26.83 42.56 26.5C42.52 26.48 42.47 26.45 42.42 26.42C40.84 25.54 39.47 24.33 38.41 22.88C37.8 22.04 37.28 21.13 36.89 20.15C36.32 18.71 36 17.14 36 15.5C36 8.6 41.6 3 48.5 3C55.4 3 61 8.6 61 15.5Z" fill="#FF4438"/>
<path d="M55.2005 16.1766C54.1612 17.3968 53.0428 18.8055 50.7946 18.8055C48.795 18.8055 48.0494 17.1416 47.9929 15.7995C48.4335 16.6647 49.2921 17.3746 50.6252 17.3413C53.2009 17.2637 54.9633 15.0785 54.9633 13.093C54.9633 10.7193 53.0767 9 49.8005 9C47.4507 9 44.5473 9.843 42.6381 11.163C42.6155 12.5273 43.4289 14.302 43.7226 14.1024C45.372 12.9932 46.6825 12.2722 47.9591 11.9061C46.0724 13.8805 41.5536 18.4616 41 19.2713C41.0565 20.0145 42.0393 22 42.5138 22C42.6607 22 42.785 21.9224 42.9318 21.7893C44.2875 20.3473 45.4059 19.0606 46.3887 17.8183C46.5356 19.6374 47.4846 21.8669 50.1507 21.8669C52.5344 21.8669 54.9068 20.2474 55.98 16.5981C56.1156 16.1544 55.5282 15.7995 55.2005 16.1766ZM52.4779 13.2261C52.4779 14.3797 51.2691 14.9454 50.1733 14.9454C49.5858 14.9454 49.134 14.8012 48.7724 14.6126C49.439 13.6809 50.0829 12.7159 50.7833 11.6954C52.0147 11.884 52.4779 12.5273 52.4779 13.2261Z" fill="white"/>
</svg>
