<svg width="64" height="64" viewBox="0 0 64 64" fill="none" xmlns="http://www.w3.org/2000/svg">
<path d="M12 6V4H3V13H5V7.41L15.59 18L17 16.59L6.41 6H12Z" fill="#091A23"/>
<path d="M51.1699 4V6H56.7599L46.1699 16.59L47.5899 18L58.1699 7.41V13H60.1699V4H51.1699Z" fill="#091A23"/>
<path d="M15.59 46L5 56.59V51H3V60H12V58H6.41L17 47.41L15.59 46Z" fill="#091A23"/>
<path d="M58.1699 51V56.59L47.5899 46L46.1699 47.41L56.7599 58H51.1699V60H60.1699V51H58.1699Z" fill="#091A23"/>
<path d="M42.6918 43H20.3082C19.8099 43 19.3017 42.9318 18.8034 42.7954C14.3087 41.9187 11 37.9637 11 33.4145C11 28.4269 14.9266 24.3161 19.9195 23.8777C20.6969 18.2765 25.6201 14 31.5 14C37.3799 14 42.3031 18.2765 43.0805 23.8777C48.0834 24.3258 52 28.4367 52 33.4145C52 37.9637 48.6913 41.9187 44.1269 42.8149C43.7083 42.9318 43.2 43 42.6918 43ZM20.8264 25.787C16.5012 25.787 12.9932 29.2062 12.9932 33.4145C12.9932 37.0383 15.6342 40.1945 19.2718 40.9056C19.6604 41.003 19.9893 41.0517 20.3082 41.0517H42.6918C43.0207 41.0517 43.3396 41.0128 43.6585 40.9251C47.3658 40.1945 49.9968 37.048 49.9968 33.4145C49.9968 29.2062 46.4888 25.787 42.1835 25.787H41.2467L41.177 24.8713C40.878 19.874 36.6325 15.9483 31.5 15.9483C26.3675 15.9483 22.122 19.8643 21.823 24.8713L21.7732 25.787H20.8364H20.8264Z" fill="#091A23"/>
</svg>
