<svg width="64" height="64" viewBox="0 0 64 64" fill="none" xmlns="http://www.w3.org/2000/svg">
<path d="M55.1703 42.8515L33.82 6.13876L32 3L30.18 6.13876L8.82975 42.8515L7 46H57L55.1703 42.8515ZM10.3855 44.0565L32 6.88701L53.6145 44.0565H10.3855Z" fill="#091A23"/>
<path d="M38.0652 25.2096C34.6676 21.8855 29.3425 21.8855 25.9449 25.2096C24.212 26.8864 23.2774 29.1417 23.2872 31.5636C23.3067 33.9856 24.2704 36.2311 26.0228 37.898C27.6972 39.4865 29.8487 40.2808 32.0002 40.2808C34.1517 40.2808 36.3032 39.4865 37.9776 37.898C39.7299 36.2311 40.6937 33.9856 40.7132 31.5636C40.7132 29.1417 39.7884 26.8864 38.0652 25.2096ZM36.6341 36.4664C34.0348 38.9374 29.9655 38.9374 27.3662 36.4664C26.0033 35.1721 25.244 33.4267 25.2342 31.5538V31.5146C25.2342 29.6515 25.9644 27.916 27.2981 26.6216C28.6123 25.3273 30.3063 24.6801 32.0002 24.6801C33.6941 24.6801 35.388 25.3273 36.7023 26.6216C38.0458 27.9258 38.7759 29.6712 38.7662 31.5538C38.7564 33.4267 37.9971 35.1721 36.6341 36.4664Z" fill="#091A23"/>
<path d="M32.9699 58.0958V49.0202H31.0301V58.0958L15.8797 49H12L32 61L52 49H48.1203L32.9699 58.0958Z" fill="#091A23"/>
<path d="M36.9258 5.71619L38.8728 9.10892L54.0695 17.9437L46.4858 22.3072L47.4495 24.0134L55.0527 19.6401V37.3392L56.9998 40.7319V17.3848L36.9258 5.71619Z" fill="#091A23"/>
<path d="M16.4431 24.0134L17.4167 22.3072L9.9303 17.9535L25.1269 9.10892L27.074 5.71619L7 17.3848V40.7319L8.94704 37.3392V19.6499L16.4431 24.0134Z" fill="#091A23"/>
</svg>
