<svg width="64" height="64" viewBox="0 0 64 64" fill="none" xmlns="http://www.w3.org/2000/svg">
<path d="M34.0305 61H29.934C29.0102 61 28.207 60.3475 28.0463 59.444L27.3937 56.1512C26.49 55.7798 25.6366 55.308 24.8635 54.7257L21.6103 55.83C20.7368 56.1211 19.7829 55.7597 19.321 54.9867L17.2728 51.5233C16.8009 50.7302 16.9715 49.7163 17.6744 49.114L20.2649 46.9255C20.2046 46.4336 20.1745 45.9718 20.1745 45.5C20.1745 45.0282 20.2046 44.5664 20.2649 44.0745L17.6744 41.886C16.9615 41.2837 16.7908 40.2698 17.2728 39.4767L19.321 36.0133C19.7729 35.2302 20.7368 34.8789 21.6103 35.17L24.8735 36.2743C25.6667 35.692 26.5202 35.2102 27.4138 34.8488L28.0664 31.546C28.2271 30.6626 29.0303 30 29.9541 30H34.0506C34.9744 30 35.7575 30.6324 35.9483 31.5359L36.6009 34.8688C37.4845 35.2403 38.3179 35.7121 39.081 36.2743L42.3944 35.16C43.2679 34.8688 44.2318 35.2202 44.6836 36.0133L46.7319 39.4666C47.2038 40.2597 47.0331 41.2736 46.3303 41.876L43.6796 44.1146C43.7298 44.5664 43.7599 45.0181 43.7599 45.49C43.7599 45.9618 43.7298 46.4035 43.6796 46.8552L46.3303 49.0939C47.0331 49.6962 47.2038 50.7102 46.742 51.5032L44.6937 54.9666C44.2318 55.7396 43.2679 56.091 42.4044 55.8099L39.091 54.6856C38.3179 55.2578 37.4946 55.7396 36.611 56.101L35.9684 59.4239C35.7776 60.3374 34.9944 60.9699 34.0707 60.9699L34.0305 61ZM30.0043 58.9922H33.9803L34.8238 54.6454L35.3659 54.4547C36.4001 54.0832 37.364 53.5311 38.2275 52.8183L38.6593 52.467L43.0169 53.9427L44.9346 50.5997L41.5008 47.6885L41.6012 47.1263C41.6915 46.6043 41.7317 46.0622 41.7317 45.5201C41.7317 44.978 41.6915 44.4258 41.6012 43.9139L41.5008 43.3517L44.9346 40.4404L42.9366 37.0573L38.6593 38.5631L38.2275 38.2118C37.3841 37.5091 36.4202 36.967 35.3659 36.5855L34.8338 36.3948L33.9904 32.0479H30.0143L29.1508 36.3847L28.6086 36.5755C27.5644 36.9368 26.5804 37.489 25.6868 38.2118L25.2551 38.5631L20.9677 37.1075L19.05 40.4505L22.4236 43.3115L22.3232 43.8737C22.2228 44.4459 22.1726 44.9981 22.1726 45.5301C22.1726 46.0622 22.2228 46.6043 22.3232 47.1865L22.4136 47.7487L19.0399 50.6098L21.038 53.9929L25.245 52.4971L25.6768 52.8484C26.5503 53.5612 27.5343 54.1033 28.6086 54.4848L29.1508 54.6755L30.0143 59.0023L30.0043 58.9922Z" fill="#091A23"/>
<path d="M32.0049 53C28.1439 53 25 49.8638 25 46C25 42.1362 28.1439 39 32.0049 39C35.866 39 39 42.1362 39 46C39 49.8638 35.866 53 32.0049 53ZM32.0049 40.9663C29.2246 40.9663 26.9649 43.2275 26.9649 46C26.9649 48.7725 29.2246 51.0337 32.0049 51.0337C34.7853 51.0337 37.0351 48.7725 37.0351 46C37.0351 43.2275 34.7754 40.9663 32.0049 40.9663Z" fill="#091A23"/>
<path d="M20.2778 21L15.99 18.9835L11.7023 21L12.3305 16.363L9 12.9339L13.7564 12.074L16 8L18.2536 12.074L23 12.9339L19.6695 16.363L20.2977 21H20.2778ZM13.1083 14.2646L14.4345 15.6362L14.1652 17.5913L15.9801 16.7417L17.7949 17.5913L17.5256 15.6362L18.8618 14.2646L16.9672 13.9165L15.99 12.1559L15.0228 13.9165L13.1182 14.2646H13.1083Z" fill="#091A23"/>
<path d="M52.2778 21L47.99 18.9835L43.7023 21L44.3305 16.363L41 12.9339L45.7464 12.074L48 8L50.2436 12.074L55 12.9339L51.6695 16.363L52.2977 21H52.2778ZM45.1083 14.2646L46.4444 15.6362L46.1752 17.5913L47.99 16.7417L49.8048 17.5913L49.5356 15.6362L50.8618 14.2646L48.9573 13.9165L47.99 12.1559L47.0128 13.9165L45.1182 14.2646H45.1083Z" fill="#091A23"/>
<path d="M27.7023 21L28.3305 16.3593L25 12.9275L29.7464 12.067L32 8L34.2536 12.067L39 12.9275L35.6595 16.3593L36.2878 21L32 18.9819L27.7123 21H27.7023ZM31.99 16.7281L33.8048 17.5784L33.5356 15.6217L34.8718 14.249L32.9772 13.9007L32 12.1284L31.0228 13.9007L29.1282 14.249L30.4644 15.6217L30.1952 17.5784L32.01 16.7281H31.99Z" fill="#091A23"/>
<path d="M32 28.44C31.49 28.44 31.03 28.19 30.76 27.77L29.73 26.12C29.73 26.12 29.68 26.08 29.61 26.08H6.8C4.7 26.08 3 24.47 3 22.5V6.58C3 4.61 4.71 3 6.8 3H57.2C59.29 3 61 4.61 61 6.58V22.5C61 24.47 59.3 26.08 57.2 26.08H34.39C34.32 26.08 34.27 26.12 34.26 26.13L33.25 27.75C32.97 28.18 32.51 28.43 32 28.43V28.44ZM6.8 5C5.81 5 5 5.71 5 6.58V22.5C5 23.37 5.81 24.08 6.8 24.08H29.61C30.34 24.08 31.04 24.45 31.42 25.05L32 25.98L32.57 25.06C32.97 24.45 33.66 24.08 34.39 24.08H57.2C58.19 24.08 59 23.37 59 22.5V6.58C59 5.71 58.19 5 57.2 5H6.8Z" fill="#091A23"/>
</svg>
