<svg width="64" height="64" viewBox="0 0 64 64" fill="none" xmlns="http://www.w3.org/2000/svg">
<path d="M58 18H5V23H58V18Z" fill="white"/>
<path d="M40 46H8.97C6.23 46 4 43.77 4 41.03V13.97C4 11.23 6.23 9 8.97 9H54.04C56.78 9 59.01 11.23 59.01 13.97V39.02H57.01V13.97C57.01 12.33 55.68 11 54.04 11H8.97C7.33 11 6 12.33 6 13.97V41.04C6 42.68 7.33 44.01 8.97 44.01H40V46.01V46Z" fill="white"/>
<path d="M51 34.05V32H54V30H46V32H49V34.05C43.4 34.56 39 39.27 39 45C39 51.07 43.93 56 50 56C56.07 56 61 51.07 61 45C61 39.27 56.6 34.56 51 34.05ZM50 54C45.04 54 41 49.96 41 45C41 40.04 45.04 36 50 36C54.96 36 59 40.04 59 45C59 49.96 54.96 54 50 54Z" fill="white"/>
<path d="M53.84 48.75L49 44.45V40H51V43.55L55.16 47.25L53.84 48.75Z" fill="white"/>
</svg>
