<svg width="64" height="64" viewBox="0 0 64 64" fill="none" xmlns="http://www.w3.org/2000/svg">
<path d="M32.5 58L13 47.0208V24.9792L32.5 14L52 24.9792V47.0208L32.5 58ZM15.0526 45.7928L32.5 55.6272L49.9474 45.7928V26.2072L32.5 16.3728L15.0526 26.2072V45.7928Z" fill="white"/>
<path d="M58.9403 44.0461V49.9544L33.3594 34.9422V7.64075L38.5909 10.0554L39.456 8.18534L32.7518 5.09248C32.4737 4.96917 32.1648 4.96917 31.8867 5.09248L25.1928 8.17507L26.0579 10.0452L31.2894 7.63048V34.9422L5.05966 49.5332V44.0461H3V51.2389C3 51.5471 3.13388 51.8348 3.38104 52.0301L9.0451 56.6539L10.353 55.0613L5.89382 51.4238L32.103 36.8534H32.5664L58.1062 51.8451L53.7088 55.0304L54.924 56.695L60.5881 52.5849C60.8558 52.3897 61.0103 52.0814 61.0103 51.7526V44.0461H58.9506H58.9403Z" fill="white"/>
</svg>
