<svg width="64" height="64" viewBox="0 0 64 64" fill="none" xmlns="http://www.w3.org/2000/svg">
<path d="M33 52H3.00012L3 3H4.97433L4.97445 49.9803H33V52Z" fill="white"/>
<path d="M48.5 61C41.6075 61 36 55.3925 36 48.5C36 41.6075 41.6075 36 48.5 36C55.3925 36 61 41.6075 61 48.5C61 55.3925 55.3925 61 48.5 61ZM48.5 37.947C42.6881 37.947 37.947 42.6783 37.947 48.5C37.947 54.3217 42.6783 59.053 48.5 59.053C54.3217 59.053 59.053 54.3217 59.053 48.5C59.053 42.6783 54.3217 37.947 48.5 37.947Z" fill="white"/>
<path d="M46.3662 55L45 53.6773L48.1025 50.3898V43H50V51.1565L46.3662 55Z" fill="white"/>
<path d="M56.0727 3C53.3587 3 51.1454 5.2051 51.1454 7.90909C51.1454 9.13636 51.5961 10.2539 52.3572 11.122L39.5482 27.9146C38.9073 27.6053 38.1862 27.4357 37.4351 27.4357C35.9529 27.4357 34.6309 28.0942 33.7196 29.122L26.4288 25.031C26.579 24.5621 26.6591 24.0632 26.6591 23.5443C26.6591 20.8404 24.4458 18.6353 21.7318 18.6353C19.0178 18.6353 16.8045 20.8404 16.8045 23.5443C16.8045 25.1009 17.5356 26.4878 18.6773 27.3958L13.1892 38.3514C12.7886 38.2417 12.368 38.1818 11.9273 38.1818C9.21328 38.1818 7 40.3869 7 43.0909C7 45.7949 9.21328 48 11.9273 48C14.6413 48 16.8546 45.7949 16.8546 43.0909C16.8546 41.5344 16.1235 40.1475 14.9818 39.2395L20.48 28.2838C20.8806 28.3936 21.3012 28.4534 21.7318 28.4534C23.214 28.4534 24.536 27.7949 25.4473 26.7672L32.7381 30.8581C32.5879 31.3271 32.5078 31.8259 32.5078 32.3448C32.5078 35.0488 34.7211 37.2539 37.4351 37.2539C40.1491 37.2539 42.3624 35.0488 42.3624 32.3448C42.3624 31.1175 41.9017 29.98 41.1506 29.122L53.9596 12.3392C54.6005 12.6486 55.3116 12.8182 56.0727 12.8182C58.7867 12.8182 61 10.6131 61 7.90909C61 5.2051 58.7867 3 56.0727 3ZM14.8516 43.0909C14.8516 44.6973 13.5397 46.0044 11.9273 46.0044C10.3149 46.0044 9.00297 44.6973 9.00297 43.0909C9.00297 41.4845 10.3149 40.1774 11.9273 40.1774C12.0375 40.1774 12.1476 40.1874 12.2578 40.1973C12.9588 40.2772 13.5898 40.6064 14.0504 41.0953C14.5412 41.6142 14.8516 42.3226 14.8516 43.0909ZM21.7318 26.4579C21.6217 26.4579 21.5215 26.4479 21.4113 26.4379C20.7103 26.3681 20.0694 26.0388 19.6187 25.5399C19.118 25.0211 18.8075 24.3226 18.8075 23.5443C18.8075 21.9379 20.1194 20.6308 21.7318 20.6308C23.3442 20.6308 24.6562 21.9379 24.6562 23.5443C24.6562 23.704 24.6461 23.8636 24.6161 24.0133C24.5059 24.7018 24.1454 25.3204 23.6246 25.7494C23.1139 26.1885 22.4629 26.4579 21.7318 26.4579ZM40.3594 32.3448C40.3594 33.9512 39.0475 35.2583 37.4351 35.2583C35.8227 35.2583 34.5108 33.9512 34.5108 32.3448C34.5108 32.1851 34.5208 32.0255 34.5508 31.8758C34.661 31.1874 35.0215 30.5687 35.5423 30.1397C36.053 29.7007 36.704 29.4313 37.4351 29.4313C37.7355 29.4313 38.026 29.4812 38.2964 29.561C38.9573 29.7705 39.5182 30.1996 39.8787 30.7783C40.1792 31.2273 40.3494 31.7661 40.3494 32.3448H40.3594ZM56.0727 10.8226C55.7723 10.8226 55.4918 10.7727 55.2114 10.6929C54.5504 10.4933 53.9796 10.0543 53.6091 9.47561C53.3186 9.02661 53.1484 8.48781 53.1484 7.90909C53.1484 6.30266 54.4603 4.99557 56.0727 4.99557C57.6851 4.99557 58.997 6.30266 58.997 7.90909C58.997 9.51552 57.6851 10.8226 56.0727 10.8226Z" fill="white"/>
</svg>
