<svg width="64" height="64" viewBox="0 0 64 64" fill="none" xmlns="http://www.w3.org/2000/svg">
<path d="M50.57 5.57591C45.68 5.57591 40.74 6.89084 40.19 9.42033H40.13V17.4103H35.37C34.4 14.5194 31.83 12.3714 28.72 12.0301C28.03 7.48306 24.12 4 19.39 4C14.66 4 10.75 7.48306 10.06 12.0301C6.09 12.4718 3 15.8545 3 19.9598C3 24.3664 6.56 27.9398 10.95 27.9398H19.33V31.5634H4.48V44H31.72V41.9925H6.48V33.5709H33.43V39.5333H35.43V31.5634H21.33V27.9398H27.84C32.23 27.9398 35.79 24.3664 35.79 19.9598C35.79 19.7792 35.79 19.5985 35.76 19.4178H40.13V24.4768C40.13 27.8394 49.5 27.9398 50.57 27.9398C51.64 27.9398 61 27.8394 61 24.4768V9.8921C61 7.06148 55.75 5.57591 50.57 5.57591ZM27.84 25.9322H10.95C7.66 25.9322 5 23.2522 5 19.9598C5 16.6675 7.66 13.9875 10.95 13.9875H11.91L11.96 13.0339C12.19 9.1192 15.43 6.00753 19.39 6.00753C23.35 6.00753 26.6 9.1192 26.82 13.0339L26.88 13.9875H27.84C30.21 13.9875 32.27 15.3827 33.21 17.4103C33.51 18.0326 33.7 18.7051 33.76 19.4178C33.78 19.5985 33.79 19.7792 33.79 19.9598C33.79 23.2522 31.12 25.9322 27.84 25.9322ZM59 24.3864C58.52 24.9586 55.42 25.9322 50.57 25.9322C45.72 25.9322 42.61 24.9586 42.13 24.3864V19.3977C44.38 20.4818 48.04 20.8331 50.57 20.8331C53.1 20.8331 56.75 20.4818 59 19.3977V24.3864ZM59 16.9686C58.8 17.5006 56.02 18.8256 50.57 18.8256C45.12 18.8256 42.33 17.5006 42.13 16.9686V12.532C44.13 13.6361 47.36 14.2083 50.57 14.2083C53.78 14.2083 57 13.6361 59 12.532V16.9686ZM50.57 12.2008C45 12.2008 42.13 10.5847 42.13 9.8921C42.13 9.1995 45 7.58344 50.57 7.58344C56.14 7.58344 59 9.1995 59 9.8921C59 10.5847 56.13 12.2008 50.57 12.2008Z" fill="white"/>
<path d="M16.6199 37.1543H11.4199V39.1618H16.6199V37.1543Z" fill="white"/>
<path d="M57.95 38H33C31.35 38 30 39.3038 30 40.8973V57.1027C30 58.6962 31.35 60 33 60H57.95C59.6 60 60.95 58.6962 60.95 57.1027V40.8973C60.95 39.3038 59.6 38 57.95 38ZM58.95 57.1027C58.95 57.6339 58.5 58.0685 57.95 58.0685H33C32.45 58.0685 32 57.6339 32 57.1027V40.8973C32 40.3661 32.45 39.9315 33 39.9315H57.95C58.5 39.9315 58.95 40.3661 58.95 40.8973V57.1027Z" fill="white"/>
<path d="M50.6198 54.022L49.2598 52.612L53.2998 48.9614L49.2698 45.4268L50.6098 43.9974L56.2598 48.9421L50.6198 54.022Z" fill="white"/>
<path d="M40.7096 54.0317L35.0596 49.0966L40.6996 44.0071L42.0596 45.4171L38.0196 49.0773L42.0496 52.6023L40.7096 54.0317Z" fill="white"/>
<path d="M46.0977 44.4301L43.2891 53.0328L45.1965 53.6137L48.0051 45.0109L46.0977 44.4301Z" fill="white"/>
</svg>
