<svg width="64" height="64" viewBox="0 0 64 64" fill="none" xmlns="http://www.w3.org/2000/svg">
<path d="M50.6614 22.22C53.1815 21 54.9293 18.45 54.9293 15.5C54.9293 11.36 51.515 8 47.3081 8C43.1012 8 39.6868 11.36 39.6868 15.5C39.6868 18.55 41.5566 21.18 44.2189 22.35C41.6785 22.86 39.5242 23.89 38 25.27C38.5386 25.7 39.0162 26.19 39.4531 26.72C41.3025 25.09 44.3917 24 47.8162 24C53.3238 24 57.9778 26.83 57.9778 30.17V34H60V30.17C60 26.25 56.0776 23.06 50.6614 22.22ZM47.3081 21C44.2291 21 41.7192 18.53 41.7192 15.5C41.7192 12.47 44.2291 10 47.3081 10C50.3871 10 52.897 12.47 52.897 15.5C52.897 18.53 50.3871 21 47.3081 21Z" fill="#FF4438"/>
<path d="M26 25.2766C24.3335 23.7661 21.8947 22.6656 19.0393 22.2255C21.5594 21.005 23.3072 18.454 23.3072 15.5029C23.3072 11.3613 19.8928 8 15.6859 8C11.479 8 8.06467 11.3613 8.06467 15.5029C8.06467 18.5541 9.93441 21.1851 12.5968 22.3555C7.56674 23.3559 4 26.4271 4 30.1685V34H6.03233V30.1685C6.03233 26.8272 10.6864 23.9962 16.194 23.9962C19.6185 23.9962 22.7076 25.0866 24.557 26.7172C24.994 26.187 25.4716 25.7068 26 25.2766ZM15.6859 20.995C12.6069 20.995 10.097 18.524 10.097 15.4929C10.097 12.4617 12.6069 9.99077 15.6859 9.99077C18.7649 9.99077 21.2748 12.4617 21.2748 15.4929C21.2748 18.524 18.7649 20.995 15.6859 20.995Z" fill="#FF4438"/>
<path d="M37.2765 41.48C40.1074 39.71 42.0079 36.58 42.0079 33C42.0079 27.49 37.5166 23 32.005 23C26.4934 23 22.0021 27.49 22.0021 33C22.0021 36.58 23.9026 39.72 26.7334 41.48C19.8614 42.77 15 46.55 15 51.12V57H49V51.12C49.01 46.54 44.1586 42.77 37.2765 41.48ZM24.0026 33C24.0026 28.59 27.5937 25 32.005 25C36.4163 25 40.0073 28.59 40.0073 33C40.0073 37.41 36.4163 41 32.005 41C27.5937 41 24.0026 37.41 24.0026 33ZM46.9994 55H17.0006V51.12C17.0006 46.72 23.8726 43 32.005 43C40.1374 43 47.0094 46.72 47.0094 51.12V55H46.9994Z" fill="#163341"/>
</svg>
