<svg width="64" height="64" viewBox="0 0 64 64" fill="none" xmlns="http://www.w3.org/2000/svg">
<path d="M44 57H21V59H44V57Z" fill="#FF4438"/>
<path d="M52.18 12L51.9 14H59V15C59 20.04 55.24 24.21 50.39 24.89L53.15 5H10.85L13.61 24.89C8.75 24.21 5 20.04 5 15V14H12.1L11.82 12H3V15C3 21.25 7.8 26.39 13.9 26.94L13.72 25.67L13.94 27.28C14.93 34.38 20.01 40.09 26.58 42.15L26.06 50H13.63V55.29H9V61H11V57.29H15.63V52H48.37V57.29H53V61H55V55.29H50.37V50H37.94L37.42 42.15C43.99 40.08 49.08 34.38 50.06 27.28L50.28 25.67L50.1 26.94C56.2 26.38 61 21.24 61 15V12H52.18ZM28.07 50L28.56 42.66C29.68 42.88 30.83 43 32 43C33.17 43 34.32 42.88 35.44 42.66L35.93 50H28.07ZM48.07 27.01C46.96 34.99 40.05 41 32 41C23.95 41 17.03 34.98 15.93 27.01L13.15 7H50.85L48.07 27.01Z" fill="#163341"/>
<path d="M37.6 29.71L32 26.38L26.4 29.71L27.83 23.36L22.94 19.06L29.42 18.46L32 12.48L34.58 18.46L41.06 19.06L36.17 23.36L37.6 29.71ZM32 24.06L34.63 25.62L33.96 22.64L36.26 20.62L33.22 20.34L32.01 17.53L30.8 20.34L27.76 20.62L30.06 22.64L29.39 25.62L32.02 24.06H32Z" fill="#FF4438"/>
</svg>
