<svg width="64" height="64" viewBox="0 0 64 64" fill="none" xmlns="http://www.w3.org/2000/svg">
<path d="M50.009 29C50.009 25.69 47.3184 23 44.0077 23C40.6969 23 38.0063 25.69 38.0063 29C38.0063 32.31 40.6969 35 44.0077 35C47.3184 35 50.009 32.31 50.009 29ZM44.0077 33C41.7971 33 40.0067 31.21 40.0067 29C40.0067 26.79 41.7971 25 44.0077 25C46.2182 25 48.0086 26.79 48.0086 29C48.0086 31.21 46.2182 33 44.0077 33Z" fill="#FF4438"/>
<path d="M44.0077 34C38.3964 34 34.0053 37.02 34.0053 40.87V45H54V40.87C54 37.02 49.619 34 44.0077 34ZM52.0095 43H36.0058V40.87C36.0058 38.23 39.6667 36 44.0077 36C48.3487 36 52.0095 38.23 52.0095 40.87V43Z" fill="#FF4438"/>
<path d="M35.0056 18C35.0056 16.35 33.6553 15 32.0049 15H21.0023C19.3519 15 18.0016 16.35 18.0016 18V23.15C18.0016 24.25 18.9018 25.15 20.0021 25.15H29.3543L35.0056 28.85V18ZM33.0051 25.15L29.9444 23.15H20.0021V18C20.0021 17.45 20.4522 17 21.0023 17H32.0049C32.555 17 33.0051 17.45 33.0051 18V25.15Z" fill="#FF4438"/>
<path d="M31.0047 9H25.1933V11H31.0047V9Z" fill="#163341"/>
<path d="M45.0079 20V11.47C45.0079 6.8 41.177 3 36.4759 3H19.532C14.8309 3 11 6.8 11 11.47V52.53C11 57.2 14.8309 61 19.532 61H36.4759C41.177 61 45.0079 57.2 45.0079 52.53V49H43.0074V52H13.0005V11.47C13.0005 7.9 15.9311 5 19.532 5H36.4759C40.0768 5 43.0074 7.9 43.0074 11.47V20H45.0079ZM36.4759 59H19.532C16.4413 59 13.8507 56.86 13.1805 54H42.8374C42.1672 56.86 39.5766 59 36.4859 59H36.4759Z" fill="#163341"/>
</svg>
